<?xml version="1.0" encoding="UTF-8"?>
<svg xmlns="http://www.w3.org/2000/svg" viewBox="0 0 602.6 600.24">
  <defs>
    <style>
      .cls-1 {
        fill: #e83b3a;
      }

      .cls-2 {
        fill: #fff;
      }
    </style>
  </defs>
  <g id="Capa_3" data-name="Capa 3">
    <circle class="cls-1" cx="300.69" cy="299.69" r="298.69"/>
  </g>
  <g id="Capa_4" data-name="Capa 4">
    <rect class="cls-1" width="602.6" height="600.24"/>
  </g>
  <g id="Capa_1" data-name="Capa 1">
    <g>
      <path class="cls-2" d="M294.28,36.8l1.99.87,161.26,264.16c71.6,138.21-54.45,290.81-204.42,251.15-105.2-27.83-160.36-144.1-113.65-243.51L294.28,36.8ZM295.1,55.65l-147.44,260.37c-42.59,94.61,13.88,203.72,113.65,227.11,132.92,31.17,246.44-98.3,193.76-224.91-50.73-85.1-100.34-171.69-153.9-255.13-.91-1.42-4.7-8.45-6.07-7.44Z"/>
      <path class="cls-2" d="M442.64,466.32h-14.75l-24.98-66.42-39.67-.68c-6.5,19.18-18.88,36.13-35.58,47.62-39.6,27.24-91.07,20.05-136.67,21.13v-227.06c44.12.71,89.03-5.06,129.53,15.97,1.98,1.03,10.77,7.17,11.79,6.93l10.46-24.4,11.36.26,88.51,226.66ZM204.11,253.61v202.06h49.59l73.26-178.94c-12.59-11.41-29.93-17.66-46.45-20.83-13.1-2.52-23.62-2.18-36.68-2.67-11.79-.43-25.08-2.28-36.89-.9-1.19.14-2.11.1-2.83,1.27ZM397.56,386.81l-49.58-127.06-51.24,127.06h100.82ZM348.37,399.11h-56.15l-21.32,51.63.02,3.3c33.13-3.85,67.55-21,77.45-54.93Z"/>
    </g>
  </g>
</svg>