<?xml version="1.0" encoding="UTF-8"?>
<svg id="Capa_1" data-name="Capa 1" xmlns="http://www.w3.org/2000/svg" viewBox="0 0 219.26 301.81">
  <defs>
    <style>
      .cls-1 {
        fill: #ff2c2c;
      }
    </style>
  </defs>
  <path class="cls-1" d="M210.22,237.02l-75.76-168.34-54.58.27L6.35,231.18c-11.98-35.77-7.12-74.77,15.51-105.23L109.75,0c27.69,40.87,57.74,80.47,84.68,121.84,5.03,7.73,10.66,15.08,14.6,23.49,13.54,28.95,13.35,62.37,1.2,91.7Z"/>
  <path class="cls-1" d="M158.89,257.52h38.14c-40.68,59.59-134.62,58.51-176.04,0h33.74l14.52-35.68,74-.67,15.64,36.35Z"/>
  <path class="cls-1" d="M128.09,178.5h-41.08l19.09-49.75c.96-.71,2.68,2.39,3.21,3.36,7.42,13.65,11.08,32.44,18.78,46.39Z"/>
</svg>