<?xml version="1.0" encoding="UTF-8"?>
<svg id="Capa_1" data-name="Capa 1" xmlns="http://www.w3.org/2000/svg" viewBox="0 0 389.59 124.07">
  <defs>
    <style>
      .cls-1 {
        fill: #fff;
      }
    </style>
  </defs>
  <path class="cls-1" d="M207.47,106.75v17.32H.47v-17.79c.34-.12.56.47.7.47h206.3Z"/>
  <polygon class="cls-1" points="242.67 81.93 227.65 81.93 227.17 51.97 211.94 76.35 204.72 76.24 190.1 52.43 190.1 81.93 175.08 81.93 175.08 23.87 187.99 23.87 208 56.35 209.1 57.11 229.29 23.87 241.96 23.87 242.67 24.57 242.67 81.93"/>
  <polygon class="cls-1" points="373.63 54.77 373.63 23.87 389.59 23.87 389.59 81.93 375.5 81.93 350.16 51.5 350.16 81.93 334.2 81.93 334.2 23.87 347.58 23.87 373.63 54.77"/>
  <path class="cls-1" d="M0,81.93V24.57c.41-.67.94-.65,1.62-.73,7.87-.92,28.76-.53,36.33,1.26,28.38,6.71,30.11,45.83,3.48,54.84-1.34.45-6.83,1.98-7.87,1.98H0ZM28.87,36.98c-3.74-.35-7.93.25-11.73,0l-.7.7v30.9l.7.7h10.8c19.7,0,22.07-30.36.94-32.31h-.01Z"/>
  <polygon class="cls-1" points="122.04 36.51 92.47 36.51 92.47 46.35 118.28 46.35 118.28 58.29 117.58 58.99 92.47 58.99 92.47 69.29 122.98 69.29 122.98 81.93 76.04 81.93 76.04 24.57 76.74 23.87 121.33 23.87 122.04 24.57 122.04 36.51"/>
  <path class="cls-1" d="M321.05,75.84l-24.24-53.86-17.46.08-23.53,51.91c-3.83-11.44-2.28-23.92,4.96-33.67L288.9,0c8.86,13.08,18.48,25.75,27.09,38.98,1.61,2.47,3.41,4.82,4.67,7.51,4.33,9.26,4.27,19.96.38,29.34h0Z"/>
  <polygon class="cls-1" points="155.83 81.93 139.4 81.93 139.4 24.57 140.11 23.87 155.13 23.87 155.83 24.57 155.83 81.93"/>
  <path class="cls-1" d="M304.63,82.4h12.2c-13.02,19.07-43.07,18.72-56.33,0h10.8l4.65-11.41,23.68-.22,5,11.63h0Z"/>
  <path class="cls-1" d="M243.37,106.75c4.48.63,6.87,4,5.65,8.45-.31,1.12-2.22,2.56-2.15,2.99l3.3,5.41-4.6-.1c-1.59-2.99-2.28-4.87-6.2-4.12v4.22l-3.99-.45c-.52-5.11-.12-10.41-.03-15.44,0-.54,0-.61.5-.97,2.36.23,5.23-.32,7.51,0h.01ZM244.9,114.6c2.93-2.92-3.13-4.92-5.52-4.11v5.15c.43.43,4.87-.4,5.52-1.05h0Z"/>
  <path class="cls-1" d="M308.85,116.11v-9.36h3.76v16.86c-1.18-.06-2.51.32-3.55-.43-1.3-.94-4.65-6.17-6.17-7.86-.28-.31.04-.9-1.07-.6v8.9h-3.76v-16.86l3.28.24,7.51,9.13v-.02Z"/>
  <path class="cls-1" d="M361.42,116.11v-9.36h3.76v16.86c-1.18-.06-2.51.32-3.55-.43-1.3-.94-4.65-6.17-6.17-7.86-.28-.31.04-.9-1.07-.6v8.9h-3.76v-16.86l3.28.24,7.51,9.13v-.02Z"/>
  <path class="cls-1" d="M290.55,106.75v3.75h-8.45v2.81h7.28c1.1.91,1.05,2.91,0,3.75h-7.28v2.81h8.92v3.75h-12.67v-16.86h12.2Z"/>
  <path class="cls-1" d="M260.65,111.57c-1.96,1.73-1.98,4.89-.36,6.86s3.95,1.34,6.32,1.43l.2-5.18c4.59-2.34,4.63,2.56,4.01,5.87-.82,4.39-11.09,3.99-13.99-.07-6.75-9.45,6.81-18.88,14.46-10.69l-2.64,2.54c-2.11-1.87-5.66-2.83-8.01-.76h0Z"/>
  <path class="cls-1" d="M229.99,123.6l-4.15-.07-1.56-3.59h-6.19c-2.12,3.14-1.93,4.32-6.41,3.66l7.58-16.77,3.45.38,7.27,16.39h0ZM222.48,116.11c.34-.31-1.45-3.59-1.87-3.27l-1.41,3.27h3.28Z"/>
  <path class="cls-1" d="M381.53,106.83l7.58,16.77-4.23-.22-1.46-3.46h-6.68l-1.78,3.6-4.14.08,7.27-16.39,3.45-.38h0ZM378.32,116.58c1.2-.9,2.43.56,3.27-.7l-1.4-3.51-1.87,4.21Z"/>
  <path class="cls-1" d="M294.77,57.12h-13.14l6.11-15.92c.31-.23.86.77,1.03,1.08,2.37,4.37,3.55,10.38,6.01,14.84h0Z"/>
  <path class="cls-1" d="M332.79,106.75v3.75h-5.16v13.11h-3.76v-12.41c-.69-1.4-4.8-.33-5.17-.7v-3.75h14.09Z"/>
  <path class="cls-1" d="M342.65,123.6c-1.42-.13-3.22.52-4.22-.7v-15.45c.94-1.09,3.29-1.09,4.22,0,0,0,0,16.15,0,16.15Z"/>
</svg>