<?xml version="1.0" encoding="UTF-8"?>
<svg id="Capa_1" data-name="Capa 1" xmlns="http://www.w3.org/2000/svg" viewBox="0 0 1443.29 462.5">
  <defs>
    <style>
      .cls-1 {
        fill: #fff;
      }

      .cls-2 {
        fill: #e62c2b;
      }
    </style>
  </defs>
  <path class="cls-1" d="M1358.85,81.1h-297.52L1005.43,0l-55.89,81.1H84.45C37.88,81.1,0,118.98,0,165.55v199.91c0,46.57,37.88,84.45,84.45,84.45h857.4c10.81,4.42,22.14,7.77,33.89,9.89,10.03,1.81,20.07,2.7,30.05,2.7,21.79,0,43.22-4.29,63.31-12.59h289.74c46.57,0,84.45-37.88,84.45-84.45v-199.91c0-46.57-37.88-84.45-84.45-84.45Z"/>
  <g>
    <path class="cls-2" d="M171.36,150.67h-105.7v223.53h105.7c74.08,0,124.86-43.11,124.86-111.76s-50.77-111.76-124.86-111.76ZM168.81,323.75h-39.92v-122.62h39.92c38,0,63.54,22.67,63.54,61.31s-25.54,61.31-63.54,61.31Z"/>
    <polygon class="cls-2" points="375.36 284.47 474.67 284.47 474.67 237.21 375.36 237.21 375.36 199.53 488.08 199.53 488.08 150.67 312.77 150.67 312.77 374.2 492.23 374.2 492.23 325.35 375.36 325.35 375.36 284.47"/>
    <rect class="cls-2" x="509" y="150.67" width="63.23" height="223.53"/>
    <polygon class="cls-2" points="802.76 150.67 726.12 279.68 647.57 150.67 595.52 150.67 595.52 374.2 653.96 374.2 653.96 258.92 711.12 352.17 739.22 352.17 796.7 255.73 797.34 374.2 855.46 374.2 854.81 150.67 802.76 150.67"/>
    <polygon class="cls-2" points="1307.8 150.67 1307.8 269.78 1209.13 150.67 1157.08 150.67 1157.08 374.2 1219.03 374.2 1219.03 255.09 1317.7 374.2 1369.76 374.2 1369.76 150.67 1307.8 150.67"/>
    <polygon class="cls-2" points="981 282.4 1038.51 282.4 1009.76 210.83 981 282.4"/>
    <path class="cls-2" d="M1005.43,57.14l-111.15,161.29c-27.96,40.77-31.96,95.06-7.81,140.21l92.61-209.79h62.3l88.2,199.16c17.5-41.13,14.25-90.04-12.99-129.57l-111.17-161.29Z"/>
    <path class="cls-2" d="M1057.04,329.04h-94.57l-17.57,43.45h-49.99c42.5,60.66,126.04,75.81,187.13,33.7,13.64-9.4,25.01-20.88,33.98-33.7h-41.41l-17.57-43.45Z"/>
  </g>
  <g>
    <path class="cls-2" d="M881.24,407.24H84.45c-23.04,0-41.78-18.74-41.78-41.78v-199.91c0-23.04,18.74-41.78,41.78-41.78h835.69l19.99-29.01H84.45c-39.04,0-70.8,31.76-70.8,70.8v199.91c0,39.04,31.76,70.8,70.8,70.8h830.94c-12.58-8.02-24.04-17.78-34.15-29.01Z"/>
    <path class="cls-2" d="M1358.85,94.75h-288.11l20,29.01h268.12c23.04,0,41.78,18.74,41.78,41.78v199.91c0,23.04-18.74,41.78-41.78,41.78h-229.16c-8.69,9.62-18.46,18.22-29.25,25.65-1.68,1.16-3.37,2.27-5.08,3.36h263.49c39.04,0,70.8-31.76,70.8-70.8v-199.91c0-39.04-31.76-70.8-70.8-70.8Z"/>
  </g>
</svg>