<?xml version="1.0" encoding="UTF-8"?>
<svg id="Capa_1" xmlns="http://www.w3.org/2000/svg" viewBox="0 0 583.46 156.21">
  <defs>
    <style>
      .cls-1 {
        fill: #e62c2b;
      }
    </style>
  </defs>
  <path class="cls-1" d="M357.49,144.26H29.17c-9.49,0-17.22-7.72-17.22-17.22V44.67c0-9.49,7.72-17.22,17.22-17.22h344.34l8.24-11.95H29.17C13.09,15.5,0,28.58,0,44.67v82.37c0,16.09,13.09,29.17,29.17,29.17h342.39c-5.18-3.31-9.9-7.32-14.07-11.95"/>
  <path class="cls-1" d="M554.29,15.5h-118.72l8.24,11.95h110.48c9.49,0,17.22,7.72,17.22,17.22v82.37c0,9.49-7.72,17.22-17.22,17.22h-94.42c-3.58,3.96-7.61,7.51-12.05,10.57-.69.48-1.39.94-2.09,1.39h108.57c16.09,0,29.17-13.09,29.17-29.17V44.67c0-16.09-13.09-29.17-29.17-29.17"/>
  <path class="cls-1" d="M21.43,38.54v92.11h43.55c30.53,0,51.45-17.76,51.45-46.05s-20.92-46.05-51.45-46.05H21.43ZM90.11,84.59c0,15.92-10.53,25.26-26.18,25.26h-16.45v-50.53h16.45c15.66,0,26.18,9.34,26.18,25.26"/>
  <polygon class="cls-1" points="195.49 58.67 195.49 38.54 123.25 38.54 123.25 130.64 197.2 130.64 197.2 110.51 149.04 110.51 149.04 93.67 189.96 93.67 189.96 74.2 149.04 74.2 149.04 58.67 195.49 58.67"/>
  <rect class="cls-1" x="204.11" y="38.54" width="26.05" height="92.11"/>
  <polygon class="cls-1" points="293.57 91.7 261.21 38.54 239.76 38.54 239.76 130.64 263.84 130.64 263.84 83.14 287.39 121.57 298.97 121.57 322.65 81.83 322.92 130.64 346.86 130.64 346.6 38.54 325.15 38.54 293.57 91.7"/>
  <polygon class="cls-1" points="537.33 130.64 558.78 130.64 558.78 38.54 533.25 38.54 533.25 87.62 492.6 38.54 471.15 38.54 471.15 130.64 496.68 130.64 496.68 81.56 537.33 130.64"/>
  <polygon class="cls-1" points="422.29 92.82 410.44 63.33 398.6 92.82 422.29 92.82"/>
  <path class="cls-1" d="M459.82,119.85c7.21-16.95,5.87-37.1-5.35-53.39L408.66,0l-45.8,66.46c-11.52,16.8-13.17,39.17-3.22,57.77l38.16-86.45h25.67l36.34,82.06Z"/>
  <path class="cls-1" d="M454.23,129.94h-17.06l-7.24-17.9h-38.97l-7.24,17.9h-20.6c17.51,25,51.93,31.24,77.11,13.89,5.62-3.87,10.3-8.6,14-13.89"/>
</svg>